<svg xmlns="http://www.w3.org/2000/svg" width="48" height="48" viewBox="0 0 48 48" fill="none">
<mask id="mask0_27370_71312" maskUnits="userSpaceOnUse" x="0" y="0" width="48" height="48">
<rect width="48" height="48" fill="#D9D9D9"/>
</mask>
<g mask="url(#mask0_27370_71312)">
<path fill-rule="evenodd" clip-rule="evenodd" d="M2.51005 32.6628C1.97374 32.5489 1.58043 32.435 1.40166 32.2831C0.865345 31.7515 1.00837 30.0808 1.04412 29.2075C1.04412 28.9797 1.54468 28.9797 1.54468 28.7899C1.61619 27.4609 2.1525 25.0308 2.29552 23.6639C2.33128 23.1703 2.5458 22.5248 3.36816 21.9932C4.33353 21.3478 7.08661 19.6391 8.12349 19.1835C8.80282 18.8797 8.65981 18.8038 9.37489 18.6899C13.0576 18.1203 21.1024 17.4748 24.7136 18.6899C27.6812 19.6771 30.2555 21.1579 32.9371 22.9045C37.6924 23.7778 41.5539 24.4993 43.8422 25.1827C44.9506 25.4865 45.4154 26.056 45.7729 26.7775C46.1305 27.5369 46.3092 27.9925 46.488 28.4481C46.8813 28.4861 46.9886 28.9038 46.9886 29.4354C46.9886 30.2707 47.0601 30.8782 46.8455 31.7515C46.6668 32.359 46.1662 32.7387 45.5226 32.7387L44.3785 32.7767C43.8064 32.6628 43.6634 32.7008 43.6991 31.9034C43.6991 31.6376 43.7349 31.3339 43.7349 31.0681C43.7349 28.2203 41.5896 25.9421 38.9081 25.9421C36.2265 25.9421 34.0812 28.2203 34.0812 31.0681C34.0812 31.4478 34.0812 31.8654 34.117 32.2072C34.1885 33.4602 34.5818 33.3463 33.4376 33.3842L14.023 33.3463C13.2006 33.2324 12.9861 33.3463 13.0934 32.1312C13.1291 31.7515 13.1291 31.4098 13.1291 30.9921C13.1291 28.1444 10.9838 25.8662 8.30226 25.8662C5.62068 25.8662 3.47541 28.1444 3.47541 30.9921C3.47541 31.2579 3.47541 31.4857 3.47541 31.7515C3.47541 32.6628 3.68995 32.8906 2.51005 32.6628ZM17.9917 23.2842C17.7057 20.7023 17.6699 19.9429 17.4196 19.3353C17.3839 19.2214 17.1694 19.0316 16.9906 19.0316C15.2386 19.1075 13.2721 19.1075 11.5917 19.5252C10.9838 19.715 9.7682 21.1959 9.44641 21.6515C9.33915 21.8414 8.44529 22.9045 8.5883 23.1323C8.69557 23.2842 8.80283 23.3981 9.05311 23.3981C11.6989 23.4741 14.6308 23.7778 17.2766 23.8158C18.0275 23.8158 18.0632 24.0057 17.9917 23.2842ZM28.003 24.1955C27.9672 24.0816 29.6834 22.4489 29.9337 22.6008C28.5035 21.4996 26.1795 20.2846 24.2845 19.6011C22.7471 19.0316 20.6375 19.0316 18.9928 18.9936C18.7068 18.9936 18.7068 19.1075 18.7426 19.3733C18.8498 20.1707 19.1359 21.9553 19.3146 23.1323C19.3861 23.7019 19.5292 23.8538 20.0655 23.8538C22.2465 23.8538 28.0387 24.3094 28.003 24.1955Z" fill="#F6F6F6"/>
<path d="M2.51006 32.6628C1.97374 32.5489 1.58044 32.435 1.40166 32.2831C0.865348 31.7515 1.00837 30.0808 1.04413 29.2075C1.04413 28.9797 1.54468 28.9797 1.54468 28.7899C1.61619 27.4609 2.15251 25.0308 2.29553 23.6639C2.33128 23.1703 2.54581 22.5248 3.36816 21.9932C4.33353 21.3478 7.08662 19.6391 8.12349 19.1835C8.80283 18.8797 8.65981 18.8038 9.3749 18.6899C13.0576 18.1203 21.1024 17.4748 24.7136 18.6899C27.6812 19.6771 30.2555 21.1579 32.9371 22.9045C37.6924 23.7778 41.5539 24.4993 43.8422 25.1827C44.9506 25.4865 45.4154 26.056 45.7729 26.7775C46.1305 27.5369 46.3092 27.9925 46.488 28.4481C46.8813 28.4861 46.9886 28.9038 46.9886 29.4354C46.9886 30.2707 47.0601 30.8782 46.8455 31.7515C46.6668 32.359 46.1662 32.7387 45.5226 32.7387L44.3785 32.7767M33.4376 33.3842L14.023 33.3463" stroke="#878787" stroke-miterlimit="10"/>
<path d="M38.6484 27.6016C36.9146 27.6017 35.4307 29.134 35.4307 31.0508C35.4308 32.9674 36.9147 34.4989 38.6484 34.499C40.3823 34.499 41.867 32.9675 41.8672 31.0508C41.8672 29.1339 40.3824 27.6016 38.6484 27.6016ZM8.00684 27.6016C6.27302 27.6018 4.78906 29.134 4.78906 31.0508C4.78924 32.9674 6.27312 34.4988 8.00684 34.499C9.7407 34.499 11.2254 32.9675 11.2256 31.0508C11.2256 29.1307 9.77353 27.6016 8.00684 27.6016Z" fill="white" stroke="#878787" stroke-miterlimit="10"/>
</g>
</svg>