<svg xmlns="http://www.w3.org/2000/svg" width="60" height="60" viewBox="0 0 60 60" fill="none">
<mask id="mask0_48639_256706" maskUnits="userSpaceOnUse" x="0" y="0" width="60" height="60">
<rect width="60" height="60" fill="#D9D9D9"/>
</mask>
<g mask="url(#mask0_48639_256706)">
<path d="M9.372 33.8063V29.4146C9.372 29.0999 9.58004 28.8195 9.8894 28.72L14.157 27.3432C15.7644 24.7089 17.9739 22.202 22.8565 21.3741C22.8655 21.3727 22.8747 21.3712 22.8837 21.3698C31.9008 20.1635 38.6706 22.1317 43.017 27.2217C46.2521 27.2671 49.5546 27.9215 51.497 29.1248C52.503 29.7484 53.0998 30.8339 53.1559 31.989L53.2436 33.8064C53.6611 33.8064 54 34.1343 54 34.5383V37.4661C54 37.8701 53.6611 38.198 53.2436 38.198H50.218C49.7982 38.198 49.4624 37.8643 49.4617 37.458C49.4617 37.4543 49.4609 37.4507 49.4609 37.4463C49.4495 34.626 47.0842 32.3424 44.1667 32.3424C41.2425 32.3424 38.8719 34.6363 38.8719 37.466C38.9264 37.9103 38.5641 38.1979 38.1156 38.1979H24.5002C24.0804 38.1979 23.7446 37.8642 23.7439 37.4579C23.7439 37.4542 23.7432 37.4506 23.7432 37.4462C23.7318 34.626 21.3665 32.3423 18.4491 32.3423C15.5248 32.3423 13.1542 34.6362 13.1542 37.4659C13.2087 37.9102 12.8464 38.1978 12.3979 38.1978H9.37227C8.95477 38.1978 8.61589 37.8699 8.61589 37.4659V34.5381C8.61563 34.1342 8.9545 33.8063 9.372 33.8063ZM29.795 26.8528C29.795 27.0548 29.9644 27.2188 30.1732 27.2188H40.0375C40.3869 27.2188 40.5457 26.8031 40.2879 26.5754C37.6631 24.2602 34.3252 22.9361 30.2118 22.5841C29.9902 22.5651 29.795 22.7378 29.795 22.953V26.8528ZM20.7076 26.8564C20.7099 27.057 20.8785 27.2187 21.0858 27.2187H27.904C28.1127 27.2187 28.2822 27.0548 28.2822 26.8527V22.8563C28.2822 22.6535 28.115 22.4867 27.9063 22.4867C26.3981 22.4852 24.802 22.5913 23.1054 22.8183C22.2975 22.9558 21.5775 23.1447 20.9224 23.3767C20.7719 23.4302 20.6758 23.5715 20.6773 23.7266L20.7076 26.8564ZM16.7598 27.2187H18.8165C19.0267 27.2187 19.1969 27.0526 19.1947 26.8491L19.175 24.8656C19.172 24.5633 18.8158 24.3993 18.5638 24.5779C17.7461 25.1561 17.0662 25.8449 16.4603 26.6266C16.2712 26.8703 16.4452 27.2187 16.7598 27.2187Z" fill="#F6F6F6"/>
<path d="M47.867 38.198C47.867 36.1812 46.204 34.5182 44.1872 34.5182C42.1704 34.5182 40.5074 36.1458 40.5074 38.198C40.5074 40.2148 42.1704 41.8778 44.1872 41.8778C46.204 41.8778 47.867 40.2148 47.867 38.198Z" stroke="#878787" stroke-width="1.00854" stroke-miterlimit="10"/>
<path d="M51.4446 38.198H53.2436C53.6611 38.198 54 37.8701 54 37.4661V34.5383C54 34.1343 53.6611 33.8064 53.2436 33.8064L53.1559 31.989C53.0998 30.8339 52.503 29.7484 51.497 29.1248C49.5546 27.9215 46.2521 27.2671 43.017 27.2217C38.6706 22.1317 31.9008 20.1635 22.8837 21.3698C22.8746 21.3712 22.8655 21.3727 22.8565 21.3741C17.9738 22.202 15.7644 24.7089 14.157 27.3432L9.8894 28.72C9.58004 28.8195 9.372 29.0999 9.372 29.4146V33.8063C8.9545 33.8063 8.61562 34.1342 8.61589 34.5381V37.4659C8.61589 37.8699 8.95477 38.1978 9.37227 38.1978H10.8851M39 38.1979H23.7352" stroke="#878787" stroke-width="1.00854"/>
<path d="M22.1084 38.198C22.1084 36.1812 20.4454 34.5182 18.4286 34.5182C16.4118 34.5182 14.7488 36.1458 14.7488 38.198C14.7488 40.2148 16.4118 41.8778 18.4286 41.8778C20.4454 41.8778 22.1084 40.2148 22.1084 38.198Z" stroke="#878787" stroke-width="1.00854" stroke-miterlimit="10"/>
<path d="M9.18484 19.5924V41.3555H21.3934V19.5924H9.18484Z" fill="#F6F6F6"/>
<path d="M23.5167 28.6162L21.9243 26.4929L22.4551 33.9242L23.5167 34.455V36.5783H25.6399V32.3318L23.5167 30.2086V28.6162Z" fill="#F6F6F6"/>
<path d="M8.97461 18.5H20.9326C21.5215 18.5 21.9908 18.9365 22.0479 19.4785L22.0537 19.5889V40.7959H23.2578V42.2715H6.5V40.7959H7.85449V19.5879C7.85449 18.9969 8.34647 18.5002 8.97461 18.5ZM12.4678 22.0645C11.6494 22.0647 10.9689 22.7173 10.9688 23.5439V24.5605C10.9688 25.3871 11.6487 26.0408 12.4678 26.041H17.4375C18.2564 26.041 18.9385 25.3876 18.9385 24.5605V23.5439C18.9384 22.717 18.2564 22.0645 17.4375 22.0645H12.4678Z" fill="#F6F6F6" stroke="#878787"/>
<path d="M21.9243 26.4929L23.5471 28.5548V30.1666L24.8589 31.1021L26.1708 32.0377V36.1736C26.1708 36.7665 25.6212 36.9556 25.6212 36.9556C25.6212 36.9556 23.28 37.4144 23.28 36.7457C23.28 36.077 23.5255 33.9419 22.7807 33.8165C22.2531 33.7276 22.0446 33.7945 22.0446 33.7945V31.0802" stroke="#878787"/>
</g>
</svg>